<svg width="31" height="36" viewBox="0 0 31 36" fill="none" xmlns="http://www.w3.org/2000/svg">
<path fill-rule="evenodd" clip-rule="evenodd" d="M19.617 0.18787C19.8576 0.571372 17.8351 2.81479 15.8949 4.31585C14.8543 5.12101 14.0784 5.84677 14.1703 5.92854C14.2622 6.01055 15.745 6.637 17.4653 7.32081C19.1856 8.00438 20.9051 8.82234 21.2865 9.13829C21.6681 9.45424 22.7847 10.1478 23.7683 10.6796L25.5566 11.6465L25.4101 12.7105C25.2241 14.0615 24.9496 14.3182 23.2115 14.7676C22.4332 14.9686 21.2581 15.3367 20.6008 15.5851C19.4741 16.011 19.3646 16.1304 18.6952 17.6635C18.1828 18.8372 17.946 19.8342 17.8442 21.2454C17.7668 22.3208 17.7639 23.2008 17.838 23.2008C17.9123 23.2008 18.1094 22.4009 18.2761 21.4231C18.4429 20.4454 18.6835 19.6455 18.8107 19.6455C18.938 19.6455 19.3911 19.9565 19.8176 20.3366C20.2442 20.7168 21.6758 21.9628 22.9991 23.1055C24.3224 24.2482 25.6909 25.4393 26.0405 25.7521C26.6369 26.2864 26.7175 26.2994 27.3638 25.9657C29.7098 24.7531 30.8033 21.1832 28.7889 19.4756C28.6977 19.3982 28.601 19.3212 28.4989 19.2444C27.4119 18.6891 27.1172 17.9844 27.9739 17.9899C28.7107 17.9946 28.9034 18.1399 29.9076 19.4459C30.8732 20.7014 31.1578 21.7984 30.9213 23.3516C30.7331 24.5886 29.6336 26.1574 28.4525 26.8747C27.5871 27.4001 27.6044 27.174 28.1332 31.0225C28.2675 32.0003 28.4424 33.52 28.522 34.4001L28.6666 36H27.582C26.5508 36 26.41 35.9128 24.7295 34.2302C23.3785 32.8775 22.5244 32.2555 21.1068 31.5923C20.0864 31.115 19.1885 30.7867 19.1112 30.8628C18.9806 30.9915 19.38 34.2648 19.673 35.4667C19.7991 35.9834 19.7476 36 18.0127 36H16.2219L15.2797 34.6523C13.7846 32.5136 11.2056 30.8644 8.69981 30.4444C7.94313 30.3176 7.76966 30.4122 6.63018 31.571C5.94616 32.2667 5.03092 33.5478 4.59592 34.4179L3.80532 36H1.90266H1.90735e-06L0.155188 35.1112C1.51818 27.2989 3.93018 20.8135 7.63661 14.9946C8.47702 13.6751 9.16465 12.5339 9.16465 12.4583C9.16465 12.3827 8.35263 11.5208 7.36016 10.5431C6.36769 9.56541 5.55567 8.65358 5.55567 8.51682C5.55567 8.20514 6.22092 8.20538 8.17218 8.51706C9.01572 8.65193 9.75725 8.71189 9.8198 8.65003C9.88236 8.5884 9.54408 8.03543 9.06793 7.42107C8.14644 6.23193 8.05549 5.9001 8.45224 5.16984C8.74938 4.62303 11.1039 3.42227 14.467 2.1023C15.8069 1.57634 17.4319 0.882108 18.0784 0.559521C19.4038 -0.102245 19.431 -0.108645 19.617 0.18787ZM23.36 4.13618C23.36 4.73016 22.8937 5.46991 21.8382 6.55002C20.7553 7.65833 20.4057 7.73821 19.0816 7.18049L18.1871 6.80386L19.5102 6.21984C20.2377 5.89868 21.3399 5.21511 21.9592 4.70053C23.2122 3.65977 23.36 3.60028 23.36 4.13618Z" fill="#0D3356"/>
</svg>
